<svg xmlns="http://www.w3.org/2000/svg" xmlns:xlink="http://www.w3.org/1999/xlink" height="800" width="1200" viewBox="-5.782395 -2.97875 50.11409 17.8725"><g transform="translate(-.0007)"><defs><path id="a" d="M0 0h38.551v11.915H0z"/></defs><clipPath id="b"><use height="100%" width="100%" overflow="visible" xlink:href="#a"/></clipPath><path d="M17.3992.0817c0-.032.026-.059.059-.059h.354c.164 0 .297.134.297.298v3.249h1.864c.033 0 .059.026.059.059v.559c0 .033-.026.06-.059.06h-2.389a.1852.1852 0 01-.185-.185zm2.9479-.0162c0-.032.026-.058.059-.058h.586c.033 0 .059.026.059.058v.588a.059.059 0 01-.059.059h-.586a.059.059 0 01-.059-.059zm0 1.155c0-.032.026-.059.059-.059h.586c.033 0 .059.027.059.059v2.968c0 .033-.026.059-.059.059h-.586a.0585.0585 0 01-.059-.059zm2.3562.3807c0-.046-.038-.084-.084-.084h-.548v-.357c0-.247.201-.448.447-.448h.178c.046 0 .084-.037.084-.083v-.536c0-.047-.038-.084-.084-.084h-.187c-.63 0-1.141.511-1.141 1.141v3.013c0 .047.037.084.084.084h.536a.083.083 0 00.083-.084v-2.02h.548c.046 0 .084-.038.084-.084zm3.6189 2.034a.0875.0875 0 01-.011-.067.0846.0846 0 01.043-.053l.477-.249c.038-.02.085-.008.109.027.178.262.449.413.794.413.391 0 .593-.202.593-.43 0-.261-.378-.319-.789-.404-.553-.117-1.127-.3-1.127-.971 0-.515.489-.991 1.258-.984.564 0 .993.208 1.254.553.015.019.02.044.015.068a.0842.0842 0 01-.041.056l-.433.238a.0837.0837 0 01-.107-.021c-.153-.194-.391-.314-.688-.314-.372 0-.56.182-.56.391 0 .235.299.3.769.404.534.117 1.14.293 1.14.971 0 .45-.391 1.056-1.316 1.049-.641 0-1.1-.244-1.38-.677M29.2869.059c0-.016.007-.031.017-.042a.063.063 0 01.043-.017l.352.007c.162.003.292.136.292.298v.683h.547c.047 0 .084.038.084.084v.458c0 .047-.037.084-.084.084h-.547v1.297c0 .587.041.671.588.678.032 0 .058.026.058.059v.54c0 .033-.026.059-.059.059h-.045c-.991 0-1.246-.312-1.246-1.329V.059zm2.3447 5.1605a.0758.0758 0 00.007.07c.013.02.037.033.062.033h.454c.091 0 .172-.055.207-.138l1.685-4.08a.0805.0805 0 00-.008-.078.0821.0821 0 00-.069-.038h-.555c-.034 0-.064.021-.077.053l-.878 2.209-.93-2.211a.0854.0854 0 00-.078-.051h-.565c-.029 0-.055.015-.071.038a.0843.0843 0 00-.006.08l1.297 2.971zM34.2427.0892c0-.047.038-.084.084-.084h.315c.165 0 .299.133.299.298v3.86c0 .046-.038.084-.085.084h-.529a.0845.0845 0 01-.084-.084V.0892zM24.5182.923c-.958 0-1.694.75-1.694 1.708 0 .541.227 1.013.614 1.319.287.235.657.367 1.074.362.011 0 .021.001.033.001.928 0 1.442-.629 1.573-.968a.077.077 0 00-.009-.069.075.075 0 00-.062-.033h-.588c-.026 0-.051.013-.067.034-.496.653-1.721.549-1.897-.418h2.614c.047 0 .084-.038.084-.084v-.19c0-.964-.71-1.662-1.675-1.662m-.99 1.343c.13-.43.508-.73.99-.73.502 0 .861.261.965.73zM36.875.923c-.957 0-1.694.75-1.694 1.708 0 .541.227 1.013.614 1.319.287.235.657.367 1.074.362.0111 0 .021.001.0331.001.928 0 1.442-.629 1.573-.968a.077.077 0 00-.009-.069.075.075 0 00-.062-.033h-.588a.082.082 0 00-.066.034c-.497.653-1.722.549-1.898-.418h2.614c.047 0 .084-.038.084-.084v-.19c0-.964-.71-1.662-1.675-1.662m-.99 1.343c.13-.43.508-.73.99-.73.502 0 .861.261.965.73z" clip-path="url(#b)"/><path d="M17.3896 6.0942c0-.067.054-.12.12-.12h3.315c.065 0 .119.053.119.119v.232c0 .263-.214.476-.476.476h-2.203v1.678h2.322c.066 0 .119.053.119.119v.589c0 .065-.053.119-.119.119h-2.322v2.409c0 .066-.054.12-.12.12h-.635c-.066 0-.12-.054-.12-.12zm3.7009 2.8104c0-1.662 1.341-3.011 3.003-3.011 1.669 0 3.01 1.349 3.01 3.011 0 1.662-1.341 3.011-3.01 3.011-1.662 0-3.003-1.349-3.003-3.011m5.138 0c0-1.188-.931-2.168-2.135-2.168-1.197 0-2.128.98-2.128 2.168 0 1.188.931 2.159 2.128 2.159 1.204 0 2.135-.971 2.135-2.159m1.1957 0c0-1.662 1.341-3.011 3.003-3.011 1.669 0 3.01 1.349 3.01 3.011 0 1.662-1.341 3.011-3.01 3.011-1.662 0-3.003-1.349-3.003-3.011m5.138 0c0-1.188-.931-2.168-2.135-2.168-1.197 0-2.128.98-2.128 2.168 0 1.188.931 2.159 2.128 2.159 1.204 0 2.135-.971 2.135-2.159m1.284-2.8115c0-.066.053-.119.119-.119h1.502c1.903 0 3.076 1.269 3.076 2.93 0 1.67-1.285 2.931-3.043 2.931h-1.535a.1187.1187 0 01-.119-.119zm.875.684v4.247h.69c1.349 0 2.248-.915 2.248-2.12 0-1.228-.811-2.127-2.279-2.127zM15.9975 4.322a.306.306 0 000-.4319l-3.775-3.774a.303.303 0 00-.431 0l-3.496 3.495-1.878-1.879c-1.291-1.291-3.386-1.291-4.677 0l-1.649 1.65a.3084.3084 0 000 .437l7.988 7.988c.09.09.222.112.333.067a.3116.3116 0 00.103-.068z" fill="#EA1167" clip-path="url(#b)"/></g></svg>